PathFileType  4	(X/Y/Z) C:\Users\antoi\Documents\MyRepositories\mobilecap\ResultsAnalysis
DataRate	CameraRate	NumFrames	NumMarkers	Units	OrigDataRate	OrigDataStartFrame	OrigNumFrames
100.0	100.0	5	51	mm	100.0	1069	1424
Frame#	Time	r_knee			r_shank_antsup			r_ankle			r_calc			r_5meta			r_toe			L_knee			L_shank_antsup			L_ankle			L_calc			L_5meta			L_toe			r_sh2			r_sh3			r_sh4			L_sh2			L_sh3			r_thigh1			r_thigh2			r_thigh3			r_thigh4			r_thigh5			L_thigh1			L_thigh2			L_thigh3			L_thigh4			r.ASIS			r.PSIS			L.ASIS			L.PSIS			C7			R_Shoulder			L_Shoulder			R_Sternum			L_Sternum			R_humerus			R_elbow_med			R_elbow_lat			R_forearm			R_wrist_radius			R_wrist_ulna			L_humerus			L_elbow_med			L_elbow_lat			L_forearm			L_wrist_radius			L_wrist_ulna			R_HJC			L_HJC			R_HJC_reg			L_HJC_reg			
		X1	Y1	Z1	X2	Y2	Z2	X3	Y3	Z3	X4	Y4	Z4	X5	Y5	Z5	X6	Y6	Z6	X7	Y7	Z7	X8	Y8	Z8	X9	Y9	Z9	X10	Y10	Z10	X11	Y11	Z11	X12	Y12	Z12	X13	Y13	Z13	X14	Y14	Z14	X15	Y15	Z15	X16	Y16	Z16	X17	Y17	Z17	X18	Y18	Z18	X19	Y19	Z19	X20	Y20	Z20	X21	Y21	Z21	X22	Y22	Z22	X23	Y23	Z23	X24	Y24	Z24	X25	Y25	Z25	X26	Y26	Z26	X27	Y27	Z27	X28	Y28	Z28	X29	Y29	Z29	X30	Y30	Z30	X31	Y31	Z31	X32	Y32	Z32	X33	Y33	Z33	X34	Y34	Z34	X35	Y35	Z35	X36	Y36	Z36	X37	Y37	Z37	X38	Y38	Z38	X39	Y39	Z39	X40	Y40	Z40	X41	Y41	Z41	X42	Y42	Z42	X43	Y43	Z43	X44	Y44	Z44	X45	Y45	Z45	X46	Y46	Z46	X47	Y47	Z47	X48	Y48	Z48	X49	Y49	Z49	X50	Y50	Z50	X51	Y51	Z51	

1069	10.68000000	-218.43381	463.64824	-435.84960	-161.77542	393.92091	-437.60027	-328.28901	96.71947	-431.21024	-397.71240	60.95762	-471.28936	-235.62375	46.83308	-380.69549	-182.53661	72.40749	-430.86866	-221.58382	457.56842	-920.73240	-173.70403	372.38348	-934.77800	-321.99309	97.87742	-904.07769	-391.06597	62.26865	-860.08635	-222.56881	43.06390	-956.74638	-177.22773	65.61076	-904.99978	-218.65245	294.44723	-414.83129	-232.80580	428.77251	-416.98258	-284.54009	329.30232	-409.19816	-257.92276	404.32474	-931.66252	-292.94613	286.35068	-936.52803	-500.98337	597.91620	-486.12041	-394.77255	564.40752	-470.68662	-395.31673	505.83408	-435.63006	-538.17302	493.20073	-465.55286	-425.52380	460.19489	-447.63906	-478.16192	547.44419	-917.74586	-342.24638	529.26084	-922.77756	-494.74838	435.71728	-880.74644	-354.67668	423.26681	-899.61201	-472.37706	598.89549	-565.90447	-638.17038	672.57706	-641.01895	-463.98748	588.75818	-805.70216	-643.16783	678.62658	-731.38661	-439.33225	1015.57266	-686.51443	-343.15358	987.15182	-525.20357	-349.49777	989.75208	-848.51168	-303.86152	946.48265	-662.22572	-301.02997	946.19395	-702.31938	-324.70516	889.95816	-435.09760	-304.40066	669.27724	-416.41995	-285.32028	713.37305	-351.88512	-172.70363	764.68789	-416.07026	-72.27149	803.76169	-488.29543	-49.72183	777.48455	-479.29444	-320.21893	905.19777	-931.00831	-269.74430	671.62696	-948.10756	-261.39012	726.02099	-1013.83610	-178.81931	770.39105	-954.44340	-58.54434	809.58236	-878.63320	-37.97248	787.15133	-894.18712	-558.06552	534.69758	-582.90278	-556.73574	534.33181	-789.36908	-547.00869	533.32804	-598.61461	-555.74150	543.89860	-756.52507	
1070	10.69000000	-218.80835	463.67107	-436.24771	-162.08486	394.09106	-438.14770	-328.34132	96.73872	-431.34484	-397.74833	61.01107	-471.25110	-235.58805	46.77175	-380.91859	-182.48531	72.35922	-431.07012	-222.69335	457.64113	-920.78049	-174.39279	372.60342	-934.71578	-322.01934	97.86128	-904.05745	-391.09765	62.27351	-860.01761	-222.57449	43.07814	-956.74458	-177.23222	65.66329	-905.02348	-218.68661	294.70866	-415.19611	-233.09000	428.77128	-417.79017	-284.46087	329.38560	-409.41577	-258.74310	404.38692	-931.58346	-293.43382	286.35578	-936.53246	-502.63595	593.63256	-487.17420	-396.40832	562.12806	-470.99416	-396.04260	503.54724	-435.95595	-538.79268	489.23827	-465.37169	-425.72760	457.50927	-447.71901	-480.34911	544.34691	-917.22641	-344.17040	527.83193	-922.63614	-495.40918	432.37618	-880.62789	-355.21858	421.51453	-899.32336	-475.07476	596.09026	-565.23069	-641.72257	667.22372	-640.80716	-466.56738	585.88849	-805.28010	-646.87578	673.12836	-730.93031	-446.44751	1012.75746	-686.16669	-350.40054	984.96256	-524.76679	-356.70942	987.51308	-848.46497	-310.61672	945.09126	-662.04600	-307.94956	944.71302	-702.22864	-331.49699	887.14253	-434.88598	-311.13090	666.48350	-416.76271	-291.82900	710.27955	-352.25709	-179.09390	761.45610	-416.49502	-78.50026	800.25756	-488.66979	-56.11796	773.94444	-479.66442	-326.70820	902.67886	-930.53125	-275.77100	669.05694	-946.32410	-267.27778	723.15832	-1012.33528	-184.80653	767.74367	-953.07546	-64.67412	807.15478	-877.04143	-44.06349	784.60621	-892.41612	-559.77920	530.62269	-582.36657	-558.38782	530.07553	-788.83184	-548.66159	529.30944	-597.88099	-557.70135	539.66595	-755.95911	
1071	10.70000000	-219.22908	463.65197	-436.63174	-162.44181	394.24248	-438.72913	-328.34269	96.76100	-431.38792	-397.77497	61.03819	-471.27836	-235.55032	46.86309	-380.94649	-182.50535	72.46580	-431.10439	-223.75942	457.64965	-920.70977	-175.20549	372.89024	-934.72578	-322.05603	97.84233	-904.04365	-391.17648	62.26658	-859.91208	-222.58072	43.08889	-956.74579	-177.22652	65.69899	-905.03598	-218.83221	294.88432	-415.61799	-233.30067	428.95601	-418.35578	-284.46250	329.51235	-409.69758	-259.53715	404.64118	-931.62521	-293.97210	286.47979	-936.56025	-504.23173	589.36162	-488.43738	-397.89457	560.01623	-471.20068	-396.87641	501.50030	-436.25933	-539.28318	485.11735	-465.53584	-425.91035	454.97146	-447.57840	-482.29229	541.56633	-916.73782	-345.96440	526.55004	-922.57853	-496.07349	429.21611	-880.53964	-355.71879	419.86536	-899.17393	-477.79432	593.21854	-564.52338	-645.36154	661.92389	-640.44106	-469.37459	583.05300	-805.09500	-650.71154	667.72135	-730.63858	-453.94566	1010.13294	-685.87738	-357.98912	982.79651	-524.13937	-364.34838	985.53837	-848.40185	-317.71530	944.03332	-662.05521	-314.73220	943.87306	-701.55155	-338.74724	884.60745	-434.56292	-318.05433	664.05019	-417.07857	-298.63442	707.54564	-352.64406	-185.69408	758.61167	-416.83864	-85.01273	797.23427	-489.18276	-62.75683	770.79683	-480.17271	-333.61478	900.33807	-930.06271	-282.07565	666.72124	-944.69110	-273.45339	720.48830	-1010.73587	-191.14680	765.37592	-951.84069	-71.08719	805.15874	-875.62543	-50.46093	782.41297	-890.72189	-561.59345	526.55890	-581.91963	-560.26166	525.90569	-788.38511	-550.46333	525.23667	-597.15280	-559.85887	535.41917	-755.56402	
1072	10.71000000	-219.68652	463.64100	-437.04242	-162.80511	394.46223	-439.31589	-328.28752	96.85156	-431.39967	-397.75437	61.06902	-471.29356	-235.53848	46.98106	-380.93331	-182.56112	72.65297	-431.05256	-224.76393	457.67907	-920.69236	-176.02560	373.32556	-934.85180	-322.10932	97.81742	-904.01180	-391.23319	62.25249	-859.85691	-222.58596	43.10627	-956.74231	-177.23694	65.74106	-905.04639	-219.08521	294.93561	-416.11314	-233.62066	429.17446	-418.85753	-284.71188	329.49339	-410.34555	-260.39971	404.92242	-931.59187	-294.67404	286.53010	-936.28361	-506.37317	585.98269	-488.24825	-399.64699	557.84858	-471.64103	-397.75954	499.41628	-436.55575	-539.78573	480.93400	-465.76223	-426.04716	452.48337	-447.59582	-484.29384	538.68302	-916.62852	-347.67929	525.35656	-922.56589	-496.73916	426.12645	-880.45371	-356.23205	418.43016	-899.27789	-480.45879	590.31006	-563.97507	-649.00244	656.58163	-639.95396	-472.22118	580.54721	-805.10895	-654.58183	662.40188	-730.39038	-461.82053	1007.77883	-685.69278	-365.89537	980.89836	-523.63252	-372.41032	983.75264	-848.24527	-325.14289	943.32698	-662.17061	-321.19672	943.82625	-700.45047	-346.35529	882.38481	-434.11595	-325.01502	661.98412	-417.53244	-305.57184	705.21922	-353.02384	-192.46064	756.09886	-417.08841	-91.79171	794.66127	-489.76495	-69.59783	767.98241	-480.92414	-340.94518	898.28544	-929.68336	-288.69886	664.60573	-943.27720	-279.92042	718.14678	-1009.31357	-197.76100	763.18070	-950.55315	-77.85897	803.54607	-874.30003	-57.20976	780.71330	-889.26318	-563.29338	522.44409	-581.69530	-562.12032	522.00433	-788.16234	-552.17598	521.14905	-596.66932	-561.96919	531.36560	-755.41129	
1073	10.72000000	-220.19040	463.71331	-437.49144	-163.19693	394.76838	-439.85397	-328.26896	96.99144	-431.52556	-397.72913	61.10769	-471.25844	-235.55545	47.06742	-380.96656	-182.59546	72.79296	-431.02846	-225.79882	457.86498	-920.80981	-176.87055	373.87589	-934.89342	-322.17933	97.81218	-903.99595	-391.24737	62.23782	-859.86864	-222.59350	43.13821	-956.72169	-177.26920	65.81953	-905.05068	-219.42155	295.11027	-416.52986	-234.12546	429.38112	-419.50720	-285.14898	329.55349	-411.18063	-261.35353	405.17730	-931.29316	-295.49211	286.48437	-935.67754	-508.75601	582.86912	-487.45712	-401.95507	555.53890	-472.38904	-398.60745	497.23674	-436.92405	-540.52138	476.90120	-465.73094	-426.25089	449.99720	-447.87772	-486.42852	535.62793	-916.63278	-349.43555	524.19839	-922.33983	-497.33691	423.06834	-880.47053	-356.78376	417.17703	-899.45923	-483.18547	587.60816	-563.45992	-652.64510	651.18115	-639.57607	-474.97764	578.48571	-805.08323	-658.45419	657.09996	-730.00539	-470.02958	1005.69583	-685.51137	-374.15700	979.32948	-523.23838	-380.87662	982.18433	-848.20115	-332.75957	943.04789	-662.12296	-328.65049	943.52594	-700.01653	-354.18715	880.49445	-433.54757	-332.02400	660.15376	-417.93226	-312.54448	703.25764	-353.25992	-199.36065	753.92426	-417.37092	-98.79914	792.46707	-490.29731	-76.63827	765.60793	-481.68506	-348.61286	896.45197	-929.21920	-295.73906	662.62396	-942.10273	-286.70484	716.17978	-1008.15476	-204.69207	761.36592	-949.22485	-85.01237	802.30193	-872.98421	-64.28953	779.48186	-887.97577	-564.85561	518.40755	-581.56279	-563.75512	518.38504	-788.03054	-553.70519	517.18446	-596.28692	-563.92174	527.59224	-755.29631	
